<?xml version="1.0" encoding="utf-8"?>
<svg version="1.1" xmlns:xlink="http://www.w3.org/1999/xlink" width="35px" height="35px" xmlns="http://www.w3.org/2000/svg">
  <g transform="matrix(1 0 0 1 -583 -32 )">
    <path d="M 0.13125 34.8989690721649  L 0.13125 29  L 34.8979166666667 29  L 34.8979166666667 34.8989690721649  L 0.13125 34.8989690721649  Z M 20.43125 5.10927835051547  L 26.03125 10.420618556701  L 11.5645833333333 24.7381443298969  L 5.96458333333333 24.7381443298969  L 5.96458333333333 19.4268041237113  L 20.43125 5.10927835051547  Z M 30.4645833333333 4.87835051546392  C 30.4645833333333 5.10927835051546  30.4645833333333 5.8020618556701  30.23125 6.03298969072165  L 27.43125 8.80412371134021  L 22.0645833333333 3.49278350515464  L 24.8645833333333 0.721649484536082  C 25.0979166666667 0.490721649484536  25.5645833333333 0.25979381443299  25.7979166666667 0.25979381443299  C 26.03125 0.25979381443299  26.4979166666667 0.490721649484537  26.73125 0.721649484536082  L 29.9979166666667 3.95463917525773  C 30.23125 4.18556701030928  30.4645833333333 4.64742268041237  30.4645833333333 4.87835051546392  Z " fill-rule="nonzero" fill="#ffffff" stroke="none" transform="matrix(1 0 0 1 583 32 )" />
  </g>
</svg>