<?xml version="1.0" encoding="utf-8"?>
<svg version="1.1" xmlns:xlink="http://www.w3.org/1999/xlink" width="76px" height="76px" xmlns="http://www.w3.org/2000/svg">
  <g transform="matrix(1 0 0 1 -75 -853 )">
    <path d="M 38 48.4908061025  L 38 48.48095703125  L 62.4621968275 72.94315385875  C 63.8520581444936 74.3330151757436  65.7371146188149 75.1138311332467  67.702675343125 75.1138311332467  C 71.7957436646294 75.1138311332467  75.1138311332467 71.7957436646294  75.1138311332467 67.702675343125  C 75.1138311332467 65.7371146188149  74.3330151757436 63.8520581444936  72.94315385875 62.4621968275  L 48.4908061025 38  L 72.94315385875 13.5378031725  C 74.3330151757436 12.1479418555064  75.1138311332467 10.2628853811851  75.1138311332467 8.29732465687501  C 75.1138311332467 4.2042563353706  71.7957436646294 0.886168866753302  67.702675343125 0.886168866753302  C 65.7371146188149 0.886168866753302  63.8520581444936 1.6669848242564  62.4621968275 3.05684614125  L 38 27.5091938975  L 13.5378031725 3.05684614125  C 12.1479418555064 1.6669848242564  10.2628853811851 0.886168866753302  8.29732465687501 0.886168866753302  C 4.2042563353706 0.886168866753302  0.886168866753302 4.2042563353706  0.886168866753302 8.29732465687501  C 0.886168866753302 10.2628853811851  1.6669848242564 12.1479418555064  3.05684614125 13.5378031725  L 27.5091938975 38  L 3.05684614125 62.4621968275  C 1.6669848242564 63.8520581444936  0.886168866753302 65.7371146188149  0.886168866753302 67.702675343125  C 0.886168866753302 71.7957436646294  4.2042563353706 75.1138311332467  8.29732465687501 75.1138311332467  C 10.2628853811851 75.1138311332467  12.1479418555064 74.3330151757436  13.5378031725 72.94315385875  L 38 48.4908061025  Z " fill-rule="nonzero" fill="#000000" stroke="none" transform="matrix(1 0 0 1 75 853 )" />
  </g>
</svg>