<?xml version="1.0" encoding="utf-8"?>
<svg version="1.1" xmlns:xlink="http://www.w3.org/1999/xlink" width="114px" height="76px" xmlns="http://www.w3.org/2000/svg">
  <g transform="matrix(1 0 0 1 -535 -853 )">
    <path d="M 13.608 25.038857125  L 45.342857125 56.097142875  L 100.47428575 2.21828575  C 102.274863328484 0.463415212613683  105.15462247001 0.492008565950393  106.92 2.28228575  L 112.076571375 7.521142875  C 112.919872551805 8.37651004448199  113.392632911912 9.52941884866686  113.392632911912 10.7305890570172  C 113.392632911912 11.9674706811374  112.891427531425 13.1515637709255  112.003428625 14.012571375  L 51.176 73.212571375  C 49.6159079627693 74.7329475444646  47.5212412210309 75.5800071718329  45.342857125 75.571428625  C 43.1676345200427 75.5776099864935  41.0766872934975 74.7307270839001  39.518857125 73.212571375  L 1.905142875 36.257142875  C 1.03343030161897 35.3980035280976  0.542636378503161 34.2251886301397  0.542636378503161 33.0012592089775  C 0.542636378503161 31.6946077269864  1.10177522884095 30.450410618214  2.078857125 29.582857125  L 7.38171425 24.883428625  C 9.17687401312607 23.2947337165897  11.8943448725663 23.362570696201  13.608 25.038857125  Z " fill-rule="nonzero" fill="#000000" stroke="none" transform="matrix(1 0 0 1 535 853 )" />
  </g>
</svg>