<?xml version="1.0" encoding="utf-8"?>
<svg version="1.1" xmlns:xlink="http://www.w3.org/1999/xlink" width="55px" height="55px" xmlns="http://www.w3.org/2000/svg">
  <g transform="matrix(1 0 0 1 -630 -113 )">
    <path d="M 54.8634166666667 48.0435399159664  L 45.551859375 38.4538392857143  C 51.6397291666667 28.8183823529412  50.5193333333333 15.8839075630252  42.1761197916667 7.46954306722689  C 32.5245364583333 -2.26123949579832  16.8843697916667 -2.26123949579832  7.234046875 7.46954306722689  C -2.41134895833333 17.1981880252101  -2.41134895833333 32.9750420168067  7.234046875 42.700625  C 15.823328125 51.3611607142857  29.1561302083333 52.3055199579832  38.7894375 45.5479149159664  L 47.9640677083333 54.999768907563  L 54.8634166666667 48.0434821428572  Z M 37.4600416666667 37.9515021008403  C 30.4178072916667 45.0551680672269  18.993734375 45.0551680672269  11.949265625 37.9515021008403  C 4.9025625 30.8470273109244  4.9025625 19.3296113445378  11.949265625 12.2236344537815  C 18.993734375 5.11996848739495  30.41878125 5.11996848739495  37.4600416666667 12.2236344537815  C 44.5074322916667 19.3295535714286  44.5074322916667 30.8470273109244  37.4600416666667 37.9515021008403  Z " fill-rule="nonzero" fill="#ffffff" stroke="none" transform="matrix(1 0 0 1 630 113 )" />
  </g>
</svg>